<svg width="514" height="525" viewBox="0 0 514 525" fill="none" xmlns="http://www.w3.org/2000/svg">
<g clip-path="url(#clip0_31_118)">
<path d="M506.906 503.919C506.906 510.243 504.793 515.514 500.569 519.73C496.345 522.892 492.121 525 485.785 525H21.1211C15.8414 525 10.5606 522.891 6.33593 519.73C2.1113 515.514 0 510.243 0 503.919V195.073H506.906V503.919Z" fill="#3C48AA"/>
<path d="M500.569 519.73C496.345 522.892 492.121 525 485.785 525H21.1211C15.8414 525 10.5606 522.891 6.33594 519.73L253.452 307.86L500.569 519.73Z" fill="#7B88F5"/>
<path d="M506.906 195.072L435.094 246.723L267.182 366.889C258.733 373.213 247.116 373.213 238.668 366.889L71.8116 246.723L0 195.072L71.8116 143.422L228.108 31.6898L239.724 23.2573C248.172 16.9332 259.789 16.9332 268.238 23.2573L279.854 31.6898L354.834 85.4481L391.796 111.8L435.094 143.422L506.906 195.072Z" fill="#7B88F5"/>
<path d="M435.093 65.3535V246.723L267.181 366.889C258.733 373.213 247.116 373.213 238.668 366.889L71.8113 246.723V21.0818C71.8113 9.48678 81.3157 0.00012207 92.9323 0.00012207H368.562L435.093 65.3535Z" fill="#F6F6FA"/>
<path d="M369.617 51.3902C369.617 60.8768 377.009 68.2551 386.514 68.2551H435.092L369.616 2.9017L369.617 51.3902Z" fill="#E5E5EB"/>
<path fill-rule="evenodd" clip-rule="evenodd" d="M183.364 188.792C181.545 186.974 181.545 184.026 183.364 182.208L249.208 116.364C251.026 114.545 253.974 114.545 255.792 116.364L278.838 139.409C280.656 141.227 280.656 144.175 278.838 145.994L242.623 182.208C240.805 184.026 240.805 186.974 242.623 188.792L278.838 225.006C280.656 226.825 280.656 229.773 278.838 231.591L255.792 254.636C253.974 256.455 251.026 256.455 249.208 254.636L183.364 188.792ZM298.097 205.747C299.915 207.565 302.863 207.565 304.681 205.747L321.636 188.792C323.455 186.974 323.455 184.026 321.636 182.208L304.681 165.253C302.863 163.435 299.915 163.435 298.097 165.253L281.142 182.208C279.324 184.026 279.324 186.974 281.142 188.792L298.097 205.747Z" fill="#2B32D8"/>
</g>
<defs>
<clipPath id="clip0_31_118">
<rect width="514" height="525" fill="white"/>
</clipPath>
</defs>
</svg>
