<svg width="204" height="31" viewBox="0 0 204 31" fill="none" xmlns="http://www.w3.org/2000/svg">
<path d="M43.5446 26.1421V4.19013H54.5526C56.174 4.19013 57.5073 4.47813 58.5526 5.05413C59.6193 5.63013 60.4193 6.4408 60.9526 7.48614C61.486 8.53147 61.7526 9.77947 61.7526 11.2301C61.7526 12.6595 61.4753 13.9075 60.9206 14.9741C60.366 16.0408 59.534 16.8728 58.4246 17.4701C57.3366 18.0461 55.9713 18.3341 54.3286 18.3341H47.7046V26.1421H43.5446ZM47.7046 14.7821H54.2006C55.2673 14.7821 56.0886 14.4728 56.6646 13.8541C57.262 13.2141 57.5606 12.3395 57.5606 11.2301C57.5606 10.4835 57.4326 9.85413 57.1766 9.34213C56.9206 8.83013 56.5473 8.43547 56.0566 8.15813C55.566 7.8808 54.9473 7.74213 54.2006 7.74213H47.7046V14.7821Z" fill="white"/>
<path d="M72.7656 26.5261C70.931 26.5261 69.395 26.2168 68.1576 25.5981C66.9203 24.9581 65.9923 23.9875 65.3736 22.6861C64.755 21.3848 64.4456 19.7315 64.4456 17.7261C64.4456 15.6995 64.755 14.0461 65.3736 12.7661C65.9923 11.4648 66.9203 10.5048 68.1576 9.88614C69.395 9.24613 70.931 8.92613 72.7656 8.92613C74.6216 8.92613 76.1576 9.24613 77.3736 9.88614C78.611 10.5048 79.539 11.4648 80.1576 12.7661C80.7763 14.0461 81.0856 15.6995 81.0856 17.7261C81.0856 19.7315 80.7763 21.3848 80.1576 22.6861C79.539 23.9875 78.611 24.9581 77.3736 25.5981C76.1576 26.2168 74.6216 26.5261 72.7656 26.5261ZM72.7656 23.3261C73.7896 23.3261 74.611 23.1341 75.2296 22.7501C75.8696 22.3448 76.3283 21.7475 76.6056 20.9581C76.9043 20.1475 77.0536 19.1448 77.0536 17.9501V17.5021C77.0536 16.3075 76.9043 15.3155 76.6056 14.5261C76.3283 13.7155 75.8696 13.1181 75.2296 12.7341C74.611 12.3288 73.7896 12.1261 72.7656 12.1261C71.7416 12.1261 70.9096 12.3288 70.2696 12.7341C69.651 13.1181 69.1923 13.7155 68.8936 14.5261C68.6163 15.3155 68.4776 16.3075 68.4776 17.5021V17.9501C68.4776 19.1448 68.6163 20.1475 68.8936 20.9581C69.1923 21.7475 69.651 22.3448 70.2696 22.7501C70.9096 23.1341 71.7416 23.3261 72.7656 23.3261Z" fill="white"/>
<path d="M85.3626 26.1421V9.31013H88.6266L88.9466 11.9661H89.1706C89.384 11.4328 89.64 10.9421 89.9386 10.4941C90.2586 10.0248 90.664 9.65147 91.1546 9.37413C91.6453 9.07547 92.2426 8.92613 92.9466 8.92613C93.288 8.92613 93.5973 8.95813 93.8746 9.02213C94.1733 9.08614 94.3973 9.15014 94.5466 9.21413V12.8941H93.3626C92.7013 12.8941 92.1146 12.9901 91.6026 13.1821C91.0906 13.3528 90.6533 13.6301 90.2906 14.0141C89.9493 14.3981 89.6933 14.8781 89.5226 15.4541C89.352 16.0301 89.2666 16.7021 89.2666 17.4701V26.1421H85.3626Z" fill="white"/>
<path d="M102.364 26.5261C101.319 26.5261 100.498 26.3235 99.9004 25.9181C99.3031 25.4915 98.8764 24.9581 98.6204 24.3181C98.3857 23.6568 98.2684 22.9848 98.2684 22.3021V12.5101H96.2524V9.31013H98.3644L99.0684 4.60613H102.172V9.31013H105.084V12.5101H102.172V21.9181C102.172 22.3661 102.29 22.7181 102.524 22.9741C102.759 23.2088 103.111 23.3261 103.58 23.3261H105.084V26.0141C104.871 26.0995 104.604 26.1741 104.284 26.2381C103.986 26.3235 103.666 26.3875 103.324 26.4301C102.983 26.4941 102.663 26.5261 102.364 26.5261Z" fill="white"/>
<path d="M113.259 26.5261C112.79 26.5261 112.246 26.4621 111.627 26.3341C111.03 26.2275 110.443 26.0141 109.867 25.6941C109.312 25.3741 108.854 24.9048 108.491 24.2861C108.128 23.6461 107.947 22.8141 107.947 21.7901C107.947 20.6381 108.203 19.6888 108.715 18.9421C109.227 18.1741 109.942 17.5768 110.859 17.1501C111.798 16.7021 112.907 16.3928 114.187 16.2221C115.488 16.0301 116.907 15.9341 118.443 15.9341V14.5581C118.443 14.0675 118.368 13.6301 118.219 13.2461C118.07 12.8621 117.792 12.5635 117.387 12.3501C117.003 12.1155 116.416 11.9981 115.627 11.9981C114.838 11.9981 114.219 12.0941 113.771 12.2861C113.323 12.4781 113.014 12.7128 112.843 12.9901C112.672 13.2675 112.587 13.5555 112.587 13.8541V14.3021H108.811C108.79 14.1955 108.779 14.0888 108.779 13.9821C108.779 13.8755 108.779 13.7475 108.779 13.5981C108.779 12.6381 109.067 11.8061 109.643 11.1021C110.219 10.3981 111.019 9.8648 112.043 9.50213C113.067 9.11813 114.251 8.92613 115.595 8.92613C117.131 8.92613 118.39 9.13947 119.371 9.56614C120.374 9.9928 121.12 10.6008 121.611 11.3901C122.102 12.1795 122.347 13.1395 122.347 14.2701V22.2061C122.347 22.6115 122.464 22.8995 122.699 23.0701C122.934 23.2408 123.19 23.3261 123.467 23.3261H124.491V26.0141C124.278 26.0995 123.968 26.1955 123.563 26.3021C123.158 26.4301 122.656 26.4941 122.059 26.4941C121.504 26.4941 121.003 26.3981 120.555 26.2061C120.128 26.0355 119.766 25.7795 119.467 25.4381C119.168 25.0968 118.955 24.6915 118.827 24.2221H118.635C118.272 24.6701 117.835 25.0755 117.323 25.4381C116.832 25.7795 116.246 26.0461 115.563 26.2381C114.902 26.4301 114.134 26.5261 113.259 26.5261ZM114.443 23.3261C115.083 23.3261 115.648 23.2301 116.139 23.0381C116.651 22.8461 117.067 22.5795 117.387 22.2381C117.728 21.8968 117.984 21.4808 118.155 20.9901C118.347 20.4995 118.443 19.9661 118.443 19.3901V18.6221C117.27 18.6221 116.182 18.6968 115.179 18.8461C114.198 18.9955 113.408 19.2728 112.811 19.6781C112.235 20.0835 111.947 20.6595 111.947 21.4061C111.947 21.7901 112.032 22.1315 112.203 22.4301C112.395 22.7075 112.672 22.9315 113.035 23.1021C113.419 23.2515 113.888 23.3261 114.443 23.3261Z" fill="white"/>
<path d="M127.68 26.1421V3.00613H131.584V26.1421H127.68Z" fill="white"/>
<path d="M134.783 26.1421L143.327 4.19013H148.575L157.151 26.1421H152.639L150.879 21.4701H140.831L139.071 26.1421H134.783ZM142.143 17.9501H149.535L147.327 11.9981C147.241 11.7848 147.135 11.5181 147.007 11.1981C146.9 10.8568 146.783 10.4941 146.655 10.1101C146.527 9.7048 146.399 9.29947 146.271 8.89413C146.143 8.4888 146.025 8.12613 145.919 7.80613H145.759C145.631 8.2328 145.471 8.72347 145.279 9.27814C145.108 9.8328 144.937 10.3555 144.767 10.8461C144.596 11.3368 144.457 11.7208 144.351 11.9981L142.143 17.9501Z" fill="white"/>
<path d="M160.702 26.1421V4.19013H172.67C173.843 4.19013 174.889 4.41413 175.806 4.86213C176.745 5.31013 177.481 5.93947 178.014 6.75013C178.547 7.5608 178.814 8.51014 178.814 9.59813C178.814 10.4301 178.654 11.1875 178.334 11.8701C178.014 12.5528 177.577 13.1288 177.022 13.5981C176.489 14.0461 175.881 14.3875 175.198 14.6221V14.7501C176.009 14.9208 176.734 15.2515 177.374 15.7421C178.014 16.2115 178.515 16.8195 178.878 17.5661C179.241 18.2915 179.422 19.1341 179.422 20.0941C179.422 21.4595 179.113 22.5901 178.494 23.4861C177.897 24.3821 177.086 25.0541 176.062 25.5021C175.059 25.9288 173.929 26.1421 172.67 26.1421H160.702ZM164.862 22.5901H172.126C173.001 22.5901 173.715 22.3555 174.27 21.8861C174.846 21.3955 175.134 20.6381 175.134 19.6141C175.134 19.0168 175.017 18.4941 174.782 18.0461C174.547 17.5981 174.185 17.2568 173.694 17.0221C173.225 16.7661 172.617 16.6381 171.87 16.6381H164.862V22.5901ZM164.862 13.1501H171.582C172.222 13.1501 172.755 13.0328 173.182 12.7981C173.63 12.5635 173.961 12.2435 174.174 11.8381C174.409 11.4328 174.526 10.9848 174.526 10.4941C174.526 9.55547 174.27 8.86213 173.758 8.41413C173.267 7.96613 172.617 7.74213 171.806 7.74213H164.862V13.1501Z" fill="white"/>
<path d="M193.92 26.5261C191.68 26.5261 189.76 26.1315 188.16 25.3421C186.581 24.5528 185.365 23.3261 184.512 21.6621C183.68 19.9768 183.264 17.8115 183.264 15.1661C183.264 11.3048 184.203 8.44613 186.08 6.59014C187.957 4.73413 190.571 3.80613 193.92 3.80613C195.733 3.80613 197.365 4.11547 198.816 4.73413C200.288 5.3528 201.451 6.29147 202.304 7.55013C203.179 8.78747 203.616 10.3661 203.616 12.2861H199.36C199.36 11.2195 199.125 10.3235 198.656 9.59813C198.208 8.85147 197.579 8.28613 196.768 7.90213C195.957 7.51813 195.029 7.32614 193.984 7.32614C192.533 7.32614 191.328 7.61414 190.368 8.19013C189.408 8.7448 188.693 9.5768 188.224 10.6861C187.776 11.7955 187.552 13.1715 187.552 14.8141V15.5181C187.552 17.1821 187.776 18.5688 188.224 19.6781C188.693 20.7875 189.397 21.6195 190.336 22.1741C191.296 22.7288 192.512 23.0061 193.984 23.0061C195.093 23.0061 196.064 22.8248 196.896 22.4621C197.728 22.0781 198.368 21.5235 198.816 20.7981C199.285 20.0515 199.52 19.1448 199.52 18.0781H203.616C203.616 19.9981 203.189 21.5875 202.336 22.8461C201.483 24.0835 200.32 25.0115 198.848 25.6301C197.397 26.2275 195.755 26.5261 193.92 26.5261Z" fill="white"/>
<path fill-rule="evenodd" clip-rule="evenodd" d="M0.707078 15.8492C0.316553 15.4587 0.316554 14.8256 0.707078 14.435L14.8492 0.292893C15.2397 -0.097631 15.8729 -0.0976311 16.2634 0.292893L21.2132 5.24264C21.6037 5.63316 21.6037 6.26633 21.2132 6.65685L13.435 14.435C13.0445 14.8256 13.0445 15.4587 13.435 15.8492L21.2132 23.6274C21.6037 24.0179 21.6037 24.6511 21.2132 25.0416L16.2634 29.9914C15.8729 30.3819 15.2397 30.3819 14.8492 29.9914L0.707078 15.8492ZM25.3498 19.4908C25.7403 19.8814 26.3734 19.8814 26.764 19.4908L30.4056 15.8492C30.7961 15.4587 30.7961 14.8256 30.4056 14.435L26.764 10.7934C26.3734 10.4029 25.7403 10.4029 25.3498 10.7934L21.7082 14.435C21.3176 14.8255 21.3176 15.4587 21.7082 15.8492L25.3498 19.4908Z" fill="#2B32D8"/>
</svg>
