<svg width="101" height="26" viewBox="0 0 101 26" fill="none" xmlns="http://www.w3.org/2000/svg">
<g clip-path="url(#clip0_62_17)">
<path d="M2.90979 0.407608C1.89207 0.288042 1.12736 0.198116 0.633057 0H50.4988C50.4988 0 50.4999 4.60963 50.5001 11.2223C50.5001 10.3434 50.5001 9.50057 50.5001 8.69884L50.5014 0H100.367C99.8728 0.198116 99.1081 0.288042 98.0906 0.407608C95.3876 0.724998 90.9018 1.25152 84.9575 4.57427C80.8648 6.96369 77.6183 10.1615 74.4001 13.3315C68.2407 19.3978 62.1852 25.3623 50.5014 25.3623C50.5005 21.5427 50.5001 17.8049 50.5001 14.4238C50.5001 17.8053 50.4996 21.5424 50.4988 25.3623C38.8149 25.3623 32.7594 19.3978 26.6002 13.3315C23.382 10.1615 20.1354 6.96369 16.0428 4.57427C10.0987 1.25152 5.61228 0.724998 2.90979 0.407608Z" fill="white"/>
<path fill-rule="evenodd" clip-rule="evenodd" d="M50.5002 13L44.5161 7H56.4842L50.5002 13Z" fill="#F2B41D"/>
</g>
<defs>
<clipPath id="clip0_62_17">
<rect width="101" height="26" fill="white"/>
</clipPath>
</defs>
</svg>
