<svg width="512" height="512" viewBox="0 0 512 512" fill="none" xmlns="http://www.w3.org/2000/svg">
<g clip-path="url(#clip0_64_21)">
<path fill-rule="evenodd" clip-rule="evenodd" d="M4.95179 267.955C-1.6506 261.352 -1.65059 250.648 4.95179 244.045L244.045 4.95179C250.648 -1.6506 261.352 -1.6506 267.955 4.95179L351.637 88.6345C358.24 95.2369 358.24 105.941 351.637 112.544L220.136 244.045C213.534 250.648 213.534 261.352 220.136 267.955L351.637 399.456C358.24 406.058 358.24 416.763 351.637 423.365L267.955 507.048C261.352 513.651 250.648 513.651 244.045 507.048L4.95179 267.955ZM421.572 329.521C428.175 336.123 438.879 336.123 445.482 329.521L507.048 267.955C513.651 261.352 513.651 250.648 507.048 244.045L445.482 182.479C438.879 175.876 428.175 175.876 421.572 182.479L360.006 244.045C353.403 250.648 353.403 261.352 360.006 267.955L421.572 329.521Z" fill="white"/>
</g>
<defs>
<clipPath id="clip0_64_21">
<rect width="512" height="512" fill="white"/>
</clipPath>
</defs>
</svg>
